<svg width="1500" height="147" viewBox="0 0 1500 147" fill="none" xmlns="http://www.w3.org/2000/svg">
<path d="M1493 0.5H7C3.41015 0.5 0.5 3.41015 0.5 7V140C0.5 143.59 3.41015 146.5 7 146.5H1493C1496.59 146.5 1499.5 143.59 1499.5 140V7C1499.5 3.41015 1496.59 0.5 1493 0.5Z" fill="#1F222A" stroke="white"/>
<path d="M582.301 86.36C582.301 89.1867 581.581 91.72 580.141 93.96C578.701 96.1467 576.754 97.88 574.301 99.16C571.901 100.387 569.261 101 566.381 101H539.581V44.2H566.941C569.608 44.2 571.901 44.92 573.821 46.36C575.741 47.7467 577.234 49.56 578.301 51.8C579.368 53.9867 579.901 56.28 579.901 58.68C579.901 61.5067 579.181 64.12 577.741 66.52C576.301 68.92 574.301 70.7067 571.741 71.88C574.941 72.84 577.501 74.6267 579.421 77.24C581.341 79.8533 582.301 82.8933 582.301 86.36ZM545.181 49.08V70.04H564.701C566.568 70.04 568.221 69.56 569.661 68.6C571.154 67.5867 572.301 66.3067 573.101 64.76C573.954 63.16 574.381 61.4267 574.381 59.56C574.381 57.64 573.981 55.88 573.181 54.28C572.381 52.68 571.288 51.4267 569.901 50.52C568.514 49.56 566.941 49.08 565.181 49.08H545.181ZM576.701 85.4C576.701 83.5333 576.274 81.7733 575.421 80.12C574.568 78.4667 573.394 77.1333 571.901 76.12C570.461 75.1067 568.808 74.6 566.941 74.6H545.181V96.12H566.381C568.301 96.12 570.034 95.6133 571.581 94.6C573.128 93.5867 574.354 92.28 575.261 90.68C576.221 89.0267 576.701 87.2667 576.701 85.4ZM631.022 96.04V101H592.862V44.2H630.302V49.16H598.462V69.64H626.222V74.36H598.462V96.04H631.022ZM641.612 101V44.2H665.612C668.066 44.2 670.306 44.7067 672.332 45.72C674.412 46.7333 676.199 48.12 677.692 49.88C679.186 51.5867 680.332 53.5067 681.132 55.64C681.986 57.72 682.412 59.8533 682.412 62.04C682.412 64.8133 681.879 67.4 680.812 69.8C679.799 72.2 678.332 74.2267 676.412 75.88C674.492 77.5333 672.279 78.6 669.772 79.08L683.692 101H677.372L664.012 80.04H647.212V101H641.612ZM647.212 75.08H665.772C668.012 75.08 669.959 74.4667 671.612 73.24C673.266 71.96 674.546 70.3333 675.452 68.36C676.359 66.3867 676.812 64.28 676.812 62.04C676.812 59.7467 676.279 57.64 675.212 55.72C674.199 53.7467 672.812 52.1733 671.052 51C669.292 49.7733 667.372 49.16 665.292 49.16H647.212V75.08ZM693.878 101V44.28H699.478V77.24L730.758 44.2H736.918L713.718 69.16L738.118 101H731.798L710.118 72.52L699.478 83.56V101H693.878ZM797.937 54.84C796.337 53.08 794.204 51.64 791.537 50.52C788.871 49.3467 785.831 48.76 782.417 48.76C777.404 48.76 773.751 49.72 771.457 51.64C769.164 53.5067 768.017 56.0667 768.017 59.32C768.017 61.56 768.577 63.32 769.697 64.6C770.817 65.88 772.524 66.9467 774.817 67.8C777.164 68.6 780.151 69.4 783.777 70.2C787.831 71.0533 791.324 72.0667 794.257 73.24C797.191 74.4133 799.457 76.0133 801.057 78.04C802.657 80.0133 803.457 82.7067 803.457 86.12C803.457 89.5867 802.577 92.4667 800.817 94.76C799.057 97.0533 796.631 98.76 793.537 99.88C790.444 100.947 786.924 101.48 782.977 101.48C774.124 101.48 766.524 98.7333 760.177 93.24L762.977 88.68C765.004 90.8133 767.777 92.6533 771.297 94.2C774.871 95.7467 778.817 96.52 783.137 96.52C787.617 96.52 791.137 95.6933 793.697 94.04C796.257 92.3867 797.537 89.9333 797.537 86.68C797.537 84.3333 796.897 82.4667 795.617 81.08C794.337 79.64 792.417 78.4667 789.857 77.56C787.297 76.6533 784.151 75.7733 780.417 74.92C776.471 74.0133 773.137 73 770.417 71.88C767.751 70.76 765.724 69.2933 764.337 67.48C762.951 65.6667 762.257 63.2133 762.257 60.12C762.257 56.6 763.111 53.64 764.817 51.24C766.577 48.7867 768.977 46.9467 772.017 45.72C775.057 44.44 778.551 43.8 782.497 43.8C786.231 43.8 789.591 44.3867 792.577 45.56C795.564 46.68 798.257 48.28 800.657 50.36L797.937 54.84ZM851.491 96.04V101H813.331V44.2H850.771V49.16H818.931V69.64H846.691V74.36H818.931V96.04H851.491ZM862.081 101V44.2H867.681V96.04H900.481V101H862.081ZM900.278 44.2L920.598 94.04L940.838 44.2H946.678L923.158 101H918.038L894.438 44.2H900.278ZM954.815 101V44.2H960.415V101H954.815Z" fill="#78E2A0"/>
<path d="M580.141 93.96L580.976 94.51L580.982 94.5008L580.141 93.96ZM574.301 99.16L574.756 100.05L574.764 100.047L574.301 99.16ZM539.581 101H538.581V102H539.581V101ZM539.581 44.2V43.2H538.581V44.2H539.581ZM573.821 46.36L573.221 47.16L573.228 47.1654L573.235 47.1707L573.821 46.36ZM578.301 51.8L577.398 52.23L577.402 52.2384L578.301 51.8ZM577.741 66.52L576.883 66.0055L577.741 66.52ZM571.741 71.88L571.324 70.9709L568.914 72.0758L571.454 72.8378L571.741 71.88ZM579.421 77.24L580.227 76.6479L579.421 77.24ZM545.181 49.08V48.08H544.181V49.08H545.181ZM545.181 70.04H544.181V71.04H545.181V70.04ZM569.661 68.6L570.216 69.4321L570.222 69.4275L569.661 68.6ZM573.101 64.76L572.219 64.2894L572.213 64.3006L573.101 64.76ZM573.181 54.28L572.287 54.7272L573.181 54.28ZM569.901 50.52L569.332 51.3422L569.343 51.3497L569.354 51.357L569.901 50.52ZM575.421 80.12L574.532 80.5786L575.421 80.12ZM571.901 76.12L571.325 76.9378L571.332 76.9427L571.339 76.9475L571.901 76.12ZM545.181 74.6V73.6H544.181V74.6H545.181ZM545.181 96.12H544.181V97.12H545.181V96.12ZM571.581 94.6L572.129 95.4365L571.581 94.6ZM575.261 90.68L574.396 90.1778L574.391 90.187L575.261 90.68ZM581.301 86.36C581.301 89.0073 580.63 91.3506 579.3 93.4192L580.982 94.5008C582.532 92.0894 583.301 89.3661 583.301 86.36H581.301ZM579.306 93.41C577.965 95.4465 576.15 97.0675 573.838 98.2734L574.764 100.047C577.359 98.6925 579.437 96.8469 580.976 94.51L579.306 93.41ZM573.846 98.2696C571.596 99.4193 569.114 100 566.381 100V102C569.408 102 572.206 101.354 574.756 100.05L573.846 98.2696ZM566.381 100H539.581V102H566.381V100ZM540.581 101V44.2H538.581V101H540.581ZM539.581 45.2H566.941V43.2H539.581V45.2ZM566.941 45.2C569.417 45.2 571.493 45.8642 573.221 47.16L574.421 45.56C572.309 43.9758 569.799 43.2 566.941 43.2V45.2ZM573.235 47.1707C575.013 48.4543 576.4 50.134 577.398 52.2299L579.204 51.3701C578.069 48.986 576.469 47.039 574.406 45.5493L573.235 47.1707ZM577.402 52.2384C578.403 54.2905 578.901 56.4341 578.901 58.68H580.901C580.901 56.1259 580.332 53.6829 579.2 51.3616L577.402 52.2384ZM578.901 58.68C578.901 61.3273 578.229 63.7625 576.883 66.0055L578.598 67.0345C580.133 64.4775 580.901 61.686 580.901 58.68H578.901ZM576.883 66.0055C575.548 68.2314 573.702 69.8811 571.324 70.9709L572.158 72.7891C574.9 71.5322 577.054 69.6086 578.598 67.0345L576.883 66.0055ZM571.454 72.8378C574.452 73.7375 576.828 75.3993 578.615 77.8321L580.227 76.6479C578.174 73.854 575.429 71.9425 572.028 70.9222L571.454 72.8378ZM578.615 77.8321C580.4 80.2616 581.301 83.0907 581.301 86.36H583.301C583.301 82.6959 582.282 79.4451 580.227 76.6479L578.615 77.8321ZM544.181 49.08V70.04H546.181V49.08H544.181ZM545.181 71.04H564.701V69.04H545.181V71.04ZM564.701 71.04C566.749 71.04 568.598 70.5102 570.216 69.432L569.106 67.7679C567.844 68.6098 566.386 69.04 564.701 69.04V71.04ZM570.222 69.4275C571.848 68.3241 573.11 66.9196 573.989 65.2194L572.213 64.3006C571.492 65.6938 570.46 66.8492 569.099 67.7725L570.222 69.4275ZM573.983 65.2306C574.916 63.4814 575.381 61.5858 575.381 59.56H573.381C573.381 61.2675 572.992 62.8386 572.219 64.2894L573.983 65.2306ZM575.381 59.56C575.381 57.4964 574.95 55.5817 574.075 53.8328L572.287 54.7272C573.012 56.1783 573.381 57.7836 573.381 59.56H575.381ZM574.075 53.8328C573.203 52.0875 571.995 50.6943 570.448 49.683L569.354 51.357C570.58 52.1591 571.559 53.2725 572.287 54.7272L574.075 53.8328ZM570.47 49.6978C568.909 48.6168 567.135 48.08 565.181 48.08V50.08C566.747 50.08 568.12 50.5032 569.332 51.3422L570.47 49.6978ZM565.181 48.08H545.181V50.08H565.181V48.08ZM577.701 85.4C577.701 83.3743 577.236 81.457 576.31 79.6614L574.532 80.5786C575.312 82.0897 575.701 83.6924 575.701 85.4H577.701ZM576.31 79.6614C575.382 77.8645 574.098 76.4025 572.462 75.2925L571.339 76.9475C572.69 77.8641 573.753 79.0688 574.532 80.5786L576.31 79.6614ZM572.476 75.3022C570.858 74.163 569.001 73.6 566.941 73.6V75.6C568.615 75.6 570.064 76.0504 571.325 76.9378L572.476 75.3022ZM566.941 73.6H545.181V75.6H566.941V73.6ZM544.181 74.6V96.12H546.181V74.6H544.181ZM545.181 97.12H566.381V95.12H545.181V97.12ZM566.381 97.12C568.488 97.12 570.413 96.5607 572.129 95.4365L571.033 93.7635C569.656 94.6659 568.114 95.12 566.381 95.12V97.12ZM572.129 95.4365C573.808 94.3364 575.145 92.9123 576.131 91.173L574.391 90.187C573.563 91.6477 572.447 92.8369 571.033 93.7635L572.129 95.4365ZM576.126 91.1821C577.172 89.3801 577.701 87.4475 577.701 85.4H575.701C575.701 87.0859 575.27 88.6732 574.396 90.1779L576.126 91.1821ZM631.022 96.04H632.022V95.04H631.022V96.04ZM631.022 101V102H632.022V101H631.022ZM592.862 101H591.862V102H592.862V101ZM592.862 44.2V43.2H591.862V44.2H592.862ZM630.302 44.2H631.302V43.2H630.302V44.2ZM630.302 49.16V50.16H631.302V49.16H630.302ZM598.462 49.16V48.16H597.462V49.16H598.462ZM598.462 69.64H597.462V70.64H598.462V69.64ZM626.222 69.64H627.222V68.64H626.222V69.64ZM626.222 74.36V75.36H627.222V74.36H626.222ZM598.462 74.36V73.36H597.462V74.36H598.462ZM598.462 96.04H597.462V97.04H598.462V96.04ZM630.022 96.04V101H632.022V96.04H630.022ZM631.022 100H592.862V102H631.022V100ZM593.862 101V44.2H591.862V101H593.862ZM592.862 45.2H630.302V43.2H592.862V45.2ZM629.302 44.2V49.16H631.302V44.2H629.302ZM630.302 48.16H598.462V50.16H630.302V48.16ZM597.462 49.16V69.64H599.462V49.16H597.462ZM598.462 70.64H626.222V68.64H598.462V70.64ZM625.222 69.64V74.36H627.222V69.64H625.222ZM626.222 73.36H598.462V75.36H626.222V73.36ZM597.462 74.36V96.04H599.462V74.36H597.462ZM598.462 97.04H631.022V95.04H598.462V97.04ZM641.612 101H640.612V102H641.612V101ZM641.612 44.2V43.2H640.612V44.2H641.612ZM672.332 45.72L671.885 46.6145L671.894 46.619L672.332 45.72ZM677.692 49.88L676.93 50.527L676.935 50.5328L676.94 50.5385L677.692 49.88ZM681.132 55.64L680.196 55.9911L680.201 56.0054L680.207 56.0196L681.132 55.64ZM680.812 69.8L679.898 69.3939L679.895 69.4024L679.891 69.411L680.812 69.8ZM676.412 75.88L677.065 76.6378L676.412 75.88ZM669.772 79.08L669.584 78.0978L668.14 78.3745L668.928 79.6161L669.772 79.08ZM683.692 101V102H685.512L684.536 100.464L683.692 101ZM677.372 101L676.529 101.538L676.824 102H677.372V101ZM664.012 80.04L664.855 79.5025L664.561 79.04H664.012V80.04ZM647.212 80.04V79.04H646.212V80.04H647.212ZM647.212 101V102H648.212V101H647.212ZM647.212 75.08H646.212V76.08H647.212V75.08ZM671.612 73.24L672.208 74.0431L672.216 74.037L672.224 74.0307L671.612 73.24ZM675.452 68.36L674.544 67.9425L675.452 68.36ZM675.212 55.72L674.323 56.1768L674.33 56.1913L674.338 56.2056L675.212 55.72ZM671.052 51L670.48 51.8204L670.489 51.8263L670.497 51.8321L671.052 51ZM647.212 49.16V48.16H646.212V49.16H647.212ZM642.612 101V44.2H640.612V101H642.612ZM641.612 45.2H665.612V43.2H641.612V45.2ZM665.612 45.2C667.923 45.2 670.008 45.6761 671.885 46.6144L672.779 44.8256C670.603 43.7372 668.208 43.2 665.612 43.2V45.2ZM671.894 46.619C673.85 47.5718 675.526 48.8728 676.93 50.527L678.455 49.233C676.872 47.3672 674.974 45.8948 672.77 44.821L671.894 46.619ZM676.94 50.5385C678.353 52.1542 679.438 53.9699 680.196 55.9911L682.069 55.2889C681.226 53.0434 680.018 51.0192 678.445 49.2215L676.94 50.5385ZM680.207 56.0196C681.012 57.9826 681.412 59.9872 681.412 62.04H683.412C683.412 59.7195 682.959 57.4574 682.057 55.2604L680.207 56.0196ZM681.412 62.04C681.412 64.6814 680.905 67.1288 679.898 69.3939L681.726 70.2061C682.853 67.6712 683.412 64.9453 683.412 62.04H681.412ZM679.891 69.411C678.936 71.6732 677.56 73.5724 675.76 75.1222L677.065 76.6378C679.105 74.881 680.662 72.7268 681.733 70.189L679.891 69.411ZM675.76 75.1222C673.973 76.6606 671.92 77.6505 669.584 78.0978L669.96 80.0622C672.637 79.5495 675.011 78.4061 677.065 76.6378L675.76 75.1222ZM668.928 79.6161L682.848 101.536L684.536 100.464L670.616 78.5439L668.928 79.6161ZM683.692 100H677.372V102H683.692V100ZM678.215 100.462L664.855 79.5025L663.169 80.5775L676.529 101.538L678.215 100.462ZM664.012 79.04H647.212V81.04H664.012V79.04ZM646.212 80.04V101H648.212V80.04H646.212ZM647.212 100H641.612V102H647.212V100ZM647.212 76.08H665.772V74.08H647.212V76.08ZM665.772 76.08C668.207 76.08 670.367 75.409 672.208 74.0431L671.016 72.4369C669.551 73.5243 667.818 74.08 665.772 74.08V76.08ZM672.224 74.0307C674.01 72.6482 675.39 70.8915 676.361 68.7775L674.544 67.9425C673.701 69.7752 672.521 71.2718 671 72.4493L672.224 74.0307ZM676.361 68.7775C677.33 66.669 677.812 64.4195 677.812 62.04H675.812C675.812 64.1405 675.388 66.1043 674.544 67.9425L676.361 68.7775ZM677.812 62.04C677.812 59.5845 677.239 57.3096 676.086 55.2344L674.338 56.2056C675.318 57.9704 675.812 59.9088 675.812 62.04H677.812ZM676.102 55.2632C675.015 53.146 673.516 51.4405 671.607 50.1679L670.497 51.8321C672.109 52.9062 673.383 54.3474 674.323 56.1768L676.102 55.2632ZM671.624 50.1796C669.702 48.8399 667.583 48.16 665.292 48.16V50.16C667.161 50.16 668.883 50.7067 670.48 51.8204L671.624 50.1796ZM665.292 48.16H647.212V50.16H665.292V48.16ZM646.212 49.16V75.08H648.212V49.16H646.212ZM693.878 101H692.878V102H693.878V101ZM693.878 44.28V43.28H692.878V44.28H693.878ZM699.478 44.28H700.478V43.28H699.478V44.28ZM699.478 77.24H698.478V79.7508L700.204 77.9275L699.478 77.24ZM730.758 44.2V43.2H730.327L730.032 43.5125L730.758 44.2ZM736.918 44.2L737.65 44.8808L739.213 43.2H736.918V44.2ZM713.718 69.16L712.985 68.4792L712.41 69.0978L712.924 69.7683L713.718 69.16ZM738.118 101V102H740.144L738.912 100.392L738.118 101ZM731.798 101L731.002 101.606L731.302 102H731.798V101ZM710.118 72.52L710.914 71.9143L710.207 70.9863L709.398 71.8261L710.118 72.52ZM699.478 83.56L698.758 82.8661L698.478 83.1566V83.56H699.478ZM699.478 101V102H700.478V101H699.478ZM694.878 101V44.28H692.878V101H694.878ZM693.878 45.28H699.478V43.28H693.878V45.28ZM698.478 44.28V77.24H700.478V44.28H698.478ZM700.204 77.9275L731.484 44.8875L730.032 43.5125L698.752 76.5525L700.204 77.9275ZM730.758 45.2H736.918V43.2H730.758V45.2ZM736.185 43.5192L712.985 68.4792L714.45 69.8408L737.65 44.8808L736.185 43.5192ZM712.924 69.7683L737.324 101.608L738.912 100.392L714.512 68.5517L712.924 69.7683ZM738.118 100H731.798V102H738.118V100ZM732.594 100.394L710.914 71.9143L709.322 73.1257L731.002 101.606L732.594 100.394ZM709.398 71.8261L698.758 82.8661L700.198 84.2539L710.838 73.2139L709.398 71.8261ZM698.478 83.56V101H700.478V83.56H698.478ZM699.478 100H693.878V102H699.478V100ZM797.937 54.84L797.197 55.5127L798.097 56.5029L798.792 55.359L797.937 54.84ZM791.537 50.52L791.134 51.4353L791.142 51.4387L791.15 51.442L791.537 50.52ZM771.457 51.64L772.089 52.4156L772.099 52.4068L771.457 51.64ZM769.697 64.6L768.945 65.2585L769.697 64.6ZM774.817 67.8L774.468 68.7372L774.481 68.742L774.495 68.7465L774.817 67.8ZM783.777 70.2L783.562 71.1766L783.571 71.1785L783.777 70.2ZM794.257 73.24L793.886 74.1685L794.257 73.24ZM801.057 78.04L800.272 78.6597L800.28 78.6698L801.057 78.04ZM800.817 94.76L801.61 95.3688L800.817 94.76ZM793.537 99.88L793.863 100.825L793.87 100.823L793.878 100.82L793.537 99.88ZM760.177 93.24L759.325 92.7167L758.881 93.4404L759.523 93.9961L760.177 93.24ZM762.977 88.68L763.702 87.9912L762.806 87.0478L762.125 88.1567L762.977 88.68ZM771.297 94.2L770.895 95.1155L770.9 95.1177L771.297 94.2ZM793.697 94.04L794.24 94.88L793.697 94.04ZM795.617 81.08L794.87 81.7444L794.876 81.7514L794.882 81.7583L795.617 81.08ZM780.417 74.92L780.193 75.8946L780.194 75.8949L780.417 74.92ZM770.417 71.88L770.03 72.802L770.036 72.8047L770.417 71.88ZM764.337 67.48L765.132 66.8725L764.337 67.48ZM764.817 51.24L764.005 50.6571L764.002 50.6605L764.817 51.24ZM772.017 45.72L772.391 46.6473L772.398 46.6445L772.405 46.6416L772.017 45.72ZM792.577 45.56L792.212 46.4907L792.219 46.4936L792.226 46.4963L792.577 45.56ZM800.657 50.36L801.512 50.879L801.95 50.1573L801.312 49.6043L800.657 50.36ZM798.677 54.1673C796.96 52.2788 794.697 50.7625 791.924 49.598L791.15 51.442C793.711 52.5175 795.714 53.8812 797.197 55.5127L798.677 54.1673ZM791.94 49.6047C789.126 48.3667 785.946 47.76 782.417 47.76V49.76C785.715 49.76 788.615 50.3266 791.134 51.4353L791.94 49.6047ZM782.417 47.76C777.315 47.76 773.375 48.7298 770.815 50.8732L772.099 52.4068C774.126 50.7102 777.493 49.76 782.417 49.76V47.76ZM770.826 50.8644C768.274 52.9416 767.017 55.8001 767.017 59.32H769.017C769.017 56.3332 770.054 54.0717 772.088 52.4156L770.826 50.8644ZM767.017 59.32C767.017 61.7241 767.62 63.7449 768.945 65.2585L770.45 63.9415C769.534 62.8951 769.017 61.3959 769.017 59.32H767.017ZM768.945 65.2585C770.211 66.7063 772.083 67.8497 774.468 68.7372L775.166 66.8628C772.964 66.0436 771.423 65.0536 770.45 63.9415L768.945 65.2585ZM774.495 68.7465C776.889 69.5628 779.915 70.372 783.562 71.1765L783.993 69.2235C780.386 68.428 777.439 67.6372 775.14 66.8535L774.495 68.7465ZM783.571 71.1785C787.584 72.0234 791.02 73.022 793.886 74.1685L794.629 72.3115C791.628 71.1113 788.077 70.0832 783.983 69.2214L783.571 71.1785ZM793.886 74.1685C796.693 75.2913 798.803 76.7979 800.272 78.6596L801.842 77.4204C800.112 75.2287 797.688 73.5354 794.629 72.3115L793.886 74.1685ZM800.28 78.6698C801.693 80.4122 802.457 82.8572 802.457 86.12H804.457C804.457 82.5561 803.621 79.6145 801.834 77.4102L800.28 78.6698ZM802.457 86.12C802.457 89.4117 801.625 92.0653 800.024 94.1512L801.61 95.3688C803.53 92.8681 804.457 89.7616 804.457 86.12H802.457ZM800.024 94.1512C798.396 96.2729 796.136 97.8755 793.197 98.9397L793.878 100.82C797.125 99.6445 799.719 97.8337 801.61 95.3688L800.024 94.1512ZM793.211 98.9346C790.242 99.9585 786.835 100.48 782.977 100.48V102.48C787.013 102.48 790.646 101.935 793.863 100.825L793.211 98.9346ZM782.977 100.48C774.35 100.48 766.986 97.8108 760.832 92.4839L759.523 93.9961C766.062 99.6559 773.898 102.48 782.977 102.48V100.48ZM761.029 93.7633L763.829 89.2033L762.125 88.1567L759.325 92.7167L761.029 93.7633ZM762.252 89.3687C764.394 91.623 767.289 93.531 770.895 95.1155L771.699 93.2845C768.266 91.7756 765.614 90.0037 763.702 87.9912L762.252 89.3687ZM770.9 95.1177C774.612 96.7243 778.696 97.52 783.137 97.52V95.52C778.939 95.52 775.129 94.769 771.694 93.2823L770.9 95.1177ZM783.137 97.52C787.724 97.52 791.459 96.676 794.24 94.88L793.155 93.2C790.816 94.7106 787.51 95.52 783.137 95.52V97.52ZM794.24 94.88C797.107 93.0281 798.537 90.2454 798.537 86.68H796.537C796.537 89.6213 795.407 91.7452 793.155 93.2L794.24 94.88ZM798.537 86.68C798.537 84.1459 797.841 82.0153 796.352 80.4017L794.882 81.7583C795.953 82.918 796.537 84.5207 796.537 86.68H798.537ZM796.365 80.4156C794.936 78.8083 792.849 77.5586 790.191 76.6174L789.523 78.5026C791.986 79.3747 793.739 80.4717 794.87 81.7444L796.365 80.4156ZM790.191 76.6174C787.583 75.6938 784.397 74.8039 780.64 73.9451L780.194 75.8949C783.904 76.7428 787.011 77.6129 789.523 78.5026L790.191 76.6174ZM780.641 73.9454C776.73 73.0468 773.452 72.0483 770.798 70.9553L770.036 72.8047C772.822 73.9517 776.211 74.9799 780.193 75.8946L780.641 73.9454ZM770.804 70.958C768.256 69.8878 766.388 68.515 765.132 66.8725L763.543 68.0874C765.06 70.0717 767.245 71.6322 770.03 72.802L770.804 70.958ZM765.132 66.8725C763.919 65.2863 763.257 63.0709 763.257 60.12H761.257C761.257 63.3557 761.982 66.047 763.543 68.0874L765.132 66.8725ZM763.257 60.12C763.257 56.7662 764.068 54.0193 765.632 51.8195L764.002 50.6605C762.153 53.2607 761.257 56.4338 761.257 60.12H763.257ZM765.63 51.8229C767.27 49.5368 769.512 47.8094 772.391 46.6473L771.643 44.7926C768.443 46.0839 765.885 48.0365 764.005 50.6571L765.63 51.8229ZM772.405 46.6416C775.301 45.4225 778.658 44.8 782.497 44.8V42.8C778.443 42.8 774.814 43.4575 771.629 44.7984L772.405 46.6416ZM782.497 44.8C786.126 44.8 789.359 45.37 792.212 46.4907L792.943 44.6292C789.822 43.4033 786.336 42.8 782.497 42.8V44.8ZM792.226 46.4963C795.102 47.5748 797.692 49.1138 800.002 51.1157L801.312 49.6043C798.822 47.4462 796.026 45.7852 792.928 44.6237L792.226 46.4963ZM799.802 49.841L797.082 54.321L798.792 55.359L801.512 50.879L799.802 49.841ZM851.491 96.04H852.491V95.04H851.491V96.04ZM851.491 101V102H852.491V101H851.491ZM813.331 101H812.331V102H813.331V101ZM813.331 44.2V43.2H812.331V44.2H813.331ZM850.771 44.2H851.771V43.2H850.771V44.2ZM850.771 49.16V50.16H851.771V49.16H850.771ZM818.931 49.16V48.16H817.931V49.16H818.931ZM818.931 69.64H817.931V70.64H818.931V69.64ZM846.691 69.64H847.691V68.64H846.691V69.64ZM846.691 74.36V75.36H847.691V74.36H846.691ZM818.931 74.36V73.36H817.931V74.36H818.931ZM818.931 96.04H817.931V97.04H818.931V96.04ZM850.491 96.04V101H852.491V96.04H850.491ZM851.491 100H813.331V102H851.491V100ZM814.331 101V44.2H812.331V101H814.331ZM813.331 45.2H850.771V43.2H813.331V45.2ZM849.771 44.2V49.16H851.771V44.2H849.771ZM850.771 48.16H818.931V50.16H850.771V48.16ZM817.931 49.16V69.64H819.931V49.16H817.931ZM818.931 70.64H846.691V68.64H818.931V70.64ZM845.691 69.64V74.36H847.691V69.64H845.691ZM846.691 73.36H818.931V75.36H846.691V73.36ZM817.931 74.36V96.04H819.931V74.36H817.931ZM818.931 97.04H851.491V95.04H818.931V97.04ZM862.081 101H861.081V102H862.081V101ZM862.081 44.2V43.2H861.081V44.2H862.081ZM867.681 44.2H868.681V43.2H867.681V44.2ZM867.681 96.04H866.681V97.04H867.681V96.04ZM900.481 96.04H901.481V95.04H900.481V96.04ZM900.481 101V102H901.481V101H900.481ZM863.081 101V44.2H861.081V101H863.081ZM862.081 45.2H867.681V43.2H862.081V45.2ZM866.681 44.2V96.04H868.681V44.2H866.681ZM867.681 97.04H900.481V95.04H867.681V97.04ZM899.481 96.04V101H901.481V96.04H899.481ZM900.481 100H862.081V102H900.481V100ZM900.278 44.2L901.204 43.8225L900.951 43.2H900.278V44.2ZM920.598 94.04L919.672 94.4175L920.6 96.6933L921.525 94.4163L920.598 94.04ZM940.838 44.2V43.2H940.165L939.912 43.8237L940.838 44.2ZM946.678 44.2L947.602 44.5826L948.175 43.2H946.678V44.2ZM923.158 101V102H923.827L924.082 101.383L923.158 101ZM918.038 101L917.115 101.384L917.371 102H918.038V101ZM894.438 44.2V43.2H892.94L893.515 44.5837L894.438 44.2ZM899.352 44.5775L919.672 94.4175L921.524 93.6625L901.204 43.8225L899.352 44.5775ZM921.525 94.4163L941.765 44.5763L939.912 43.8237L919.672 93.6637L921.525 94.4163ZM940.838 45.2H946.678V43.2H940.838V45.2ZM945.755 43.8174L922.235 100.617L924.082 101.383L947.602 44.5826L945.755 43.8174ZM923.158 100H918.038V102H923.158V100ZM918.962 100.616L895.362 43.8163L893.515 44.5837L917.115 101.384L918.962 100.616ZM894.438 45.2H900.278V43.2H894.438V45.2ZM954.815 101H953.815V102H954.815V101ZM954.815 44.2V43.2H953.815V44.2H954.815ZM960.415 44.2H961.415V43.2H960.415V44.2ZM960.415 101V102H961.415V101H960.415ZM955.815 101V44.2H953.815V101H955.815ZM954.815 45.2H960.415V43.2H954.815V45.2ZM959.415 44.2V101H961.415V44.2H959.415ZM960.415 100H954.815V102H960.415V100Z" fill="#1F222A"/>
</svg>
