<svg width="44" height="44" viewBox="0 0 44 44" fill="none" xmlns="http://www.w3.org/2000/svg">
<path d="M40.8571 0H3.13304C1.40446 0 0 1.42411 0 3.17232V40.8277C0 42.5759 1.40446 44 3.13304 44H40.8571C42.5857 44 44 42.5759 44 40.8277V3.17232C44 1.42411 42.5857 0 40.8571 0ZM13.2982 37.7143H6.77679V16.7161H13.308V37.7143H13.2982ZM10.0375 13.8482C7.94554 13.8482 6.25625 12.1491 6.25625 10.067C6.25625 7.98482 7.94554 6.28571 10.0375 6.28571C12.1196 6.28571 13.8187 7.98482 13.8187 10.067C13.8187 12.1589 12.1295 13.8482 10.0375 13.8482ZM37.7437 37.7143H31.2223V27.5C31.2223 25.0643 31.1732 21.9312 27.8339 21.9312C24.4357 21.9312 23.9152 24.583 23.9152 27.3232V37.7143H17.3938V16.7161H23.65V19.5839H23.7384C24.6125 17.9339 26.7438 16.1955 29.9161 16.1955C36.5161 16.1955 37.7437 20.5464 37.7437 26.2036V37.7143Z" fill="#78E2A1"/>
</svg>
