<svg width="44" height="44" viewBox="0 0 44 44" fill="none" xmlns="http://www.w3.org/2000/svg">
<path d="M40.3334 7.35166C38.5001 8.24999 36.7034 8.61483 34.8334 9.16666C32.7782 6.84749 29.7312 6.71916 26.8034 7.81549C23.8756 8.91183 21.9579 11.5922 22.0001 14.6667V16.5C16.0509 16.6522 10.7526 13.9425 7.33341 9.16666C7.33341 9.16666 -0.333586 22.7938 14.6667 29.3333C11.2347 31.6195 7.81191 33.1613 3.66675 33C9.73142 36.3055 16.3406 37.4422 22.0624 35.7812C28.6257 33.8745 34.0194 28.9557 36.0892 21.5875C36.7067 19.3466 37.0133 17.0314 37.0004 14.707C36.9967 14.2505 39.7687 9.62499 40.3334 7.34983V7.35166Z" stroke="#78E2A1" stroke-width="2.75" stroke-linecap="round" stroke-linejoin="round"/>
</svg>
